<svg xmlns="http://www.w3.org/2000/svg" xmlns:xlink="http://www.w3.org/1999/xlink" width="500" zoomAndPan="magnify" viewBox="0 0 375 374.999991" height="500" preserveAspectRatio="xMidYMid meet" version="1.2"><defs><clipPath id="7433e3f8fa"><path d="M 60 88.175781 L 315 88.175781 L 315 286.925781 L 60 286.925781 Z M 60 88.175781 "/></clipPath></defs><g id="b8725197a0"><g clip-rule="nonzero" clip-path="url(#7433e3f8fa)"><path style=" stroke:none;fill-rule:nonzero;fill:#737373;fill-opacity:1;" d="M 296.222656 147.871094 C 295.234375 140.195312 294.984375 126.820312 302.167969 122.359375 C 302.417969 122.359375 302.417969 122.113281 302.417969 122.113281 C 308.359375 120.128906 312.324219 117.652344 309.105469 114.1875 L 222.65625 88.175781 L 82.710938 107.746094 C 82.710938 107.746094 66.609375 109.976562 68.09375 134.992188 C 68.839844 148.617188 73.050781 155.304688 76.765625 158.523438 L 65.371094 161.992188 C 62.148438 165.460938 66.359375 168.183594 72.058594 169.917969 L 72.304688 170.164062 C 79.488281 174.625 79.242188 188 78.25 195.679688 C 52.488281 203.109375 61.65625 205.339844 61.65625 205.339844 L 67.351562 206.824219 C 63.386719 210.292969 59.425781 217.226562 60.167969 230.109375 C 61.65625 255.125 74.78125 256.859375 74.78125 256.859375 L 166.429688 286.582031 L 304.894531 253.144531 C 304.894531 253.144531 314.058594 250.667969 288.296875 243.484375 C 287.308594 235.804688 287.058594 222.429688 294.242188 217.972656 C 294.488281 217.972656 294.488281 217.722656 294.488281 217.722656 C 300.433594 215.742188 304.398438 213.265625 301.179688 209.796875 L 295.234375 208.0625 C 299.195312 205.585938 305.390625 199.394531 306.132812 182.796875 C 306.875 171.402344 303.902344 164.964844 300.433594 161 L 312.324219 158.027344 C 312.820312 157.53125 321.984375 155.304688 296.222656 147.871094 Z M 180.550781 147.625 L 203.832031 142.917969 L 282.351562 126.820312 L 293.996094 124.339844 C 290.28125 131.277344 290.527344 140.6875 291.023438 146.632812 C 291.269531 148.121094 291.269531 149.359375 291.515625 150.101562 L 278.636719 153.320312 L 179.3125 178.089844 Z M 80.726562 171.898438 L 92.371094 174.375 L 167.917969 189.980469 L 174.605469 191.21875 L 194.421875 195.183594 L 195.410156 225.402344 L 93.359375 200.136719 L 83.203125 197.660156 C 83.453125 196.667969 83.453125 195.429688 83.699219 194.191406 C 84.195312 188 84.441406 178.585938 80.726562 171.898438 Z M 76.019531 133.507812 C 75.773438 126.820312 77.011719 122.113281 79.488281 119.636719 C 80.976562 118.148438 82.710938 117.652344 83.949219 117.652344 C 84.691406 117.652344 85.1875 117.652344 85.1875 117.652344 L 145.625 137.222656 L 175.84375 147.128906 L 174.851562 177.597656 L 90.386719 153.816406 L 85.929688 152.578125 C 85.679688 152.578125 85.433594 152.578125 85.433594 152.578125 C 84.9375 152.828125 76.515625 152.082031 76.019531 133.507812 Z M 166.925781 272.960938 L 78.003906 247.941406 C 77.753906 247.941406 77.507812 247.941406 77.507812 247.941406 C 77.257812 247.941406 68.839844 247.199219 68.34375 228.621094 C 68.09375 221.933594 69.332031 217.226562 71.808594 214.75 C 73.296875 213.265625 75.03125 212.769531 76.269531 212.769531 C 77.011719 212.769531 77.507812 212.769531 77.507812 212.769531 L 167.917969 242.246094 Z M 283.589844 241.75 C 283.839844 243.234375 283.839844 244.476562 284.085938 245.21875 L 172.128906 273.207031 L 173.117188 242.988281 L 197.144531 238.035156 L 200.613281 238.777344 L 213.988281 234.566406 L 275.171875 221.933594 L 286.8125 219.457031 C 282.601562 226.144531 282.847656 235.558594 283.589844 241.75 Z M 289.785156 200.382812 C 289.535156 200.382812 289.289062 200.382812 289.289062 200.382812 L 280.867188 202.863281 L 200.363281 225.402344 L 199.375 194.933594 L 225.878906 186.265625 L 289.785156 165.460938 C 289.785156 165.460938 293.25 164.714844 295.730469 167.191406 C 298.207031 169.671875 299.195312 174.375 299.195312 181.0625 C 298.453125 199.640625 290.03125 200.382812 289.785156 200.382812 Z M 289.785156 200.382812 "/><path style=" stroke:none;fill-rule:nonzero;fill:#737373;fill-opacity:1;" d="M 296.222656 147.871094 C 295.234375 140.195312 294.984375 126.820312 302.167969 122.359375 C 302.417969 122.359375 302.417969 122.113281 302.417969 122.113281 C 308.359375 120.128906 312.324219 117.652344 309.105469 114.1875 L 222.65625 88.175781 L 82.710938 107.746094 C 82.710938 107.746094 66.609375 109.976562 68.09375 134.992188 C 68.839844 148.617188 73.050781 155.304688 76.765625 158.523438 L 65.371094 161.992188 C 62.148438 165.460938 66.359375 168.183594 72.058594 169.917969 L 72.304688 170.164062 C 79.488281 174.625 79.242188 188 78.25 195.679688 C 52.488281 203.109375 61.65625 205.339844 61.65625 205.339844 L 67.351562 206.824219 C 63.386719 210.292969 59.425781 217.226562 60.167969 230.109375 C 61.65625 255.125 74.78125 256.859375 74.78125 256.859375 L 166.429688 286.582031 L 304.894531 253.144531 C 304.894531 253.144531 314.058594 250.667969 288.296875 243.484375 C 287.308594 235.804688 287.058594 222.429688 294.242188 217.972656 C 294.488281 217.972656 294.488281 217.722656 294.488281 217.722656 C 300.433594 215.742188 304.398438 213.265625 301.179688 209.796875 L 295.234375 208.0625 C 299.195312 205.585938 305.390625 199.394531 306.132812 182.796875 C 306.875 171.402344 303.902344 164.964844 300.433594 161 L 312.324219 158.027344 C 312.820312 157.53125 321.984375 155.304688 296.222656 147.871094 Z M 180.550781 147.625 L 203.832031 142.917969 L 282.351562 126.820312 L 293.996094 124.339844 C 290.28125 131.277344 290.527344 140.6875 291.023438 146.632812 C 291.269531 148.121094 291.269531 149.359375 291.515625 150.101562 L 278.636719 153.320312 L 179.3125 178.089844 Z M 80.726562 171.898438 L 92.371094 174.375 L 167.917969 189.980469 L 174.605469 191.21875 L 194.421875 195.183594 L 195.410156 225.402344 L 93.359375 200.136719 L 83.203125 197.660156 C 83.453125 196.667969 83.453125 195.429688 83.699219 194.191406 C 84.195312 188 84.441406 178.585938 80.726562 171.898438 Z M 76.019531 133.507812 C 75.773438 126.820312 77.011719 122.113281 79.488281 119.636719 C 80.976562 118.148438 82.710938 117.652344 83.949219 117.652344 C 84.691406 117.652344 85.1875 117.652344 85.1875 117.652344 L 145.625 137.222656 L 175.84375 147.128906 L 174.851562 177.597656 L 90.386719 153.816406 L 85.929688 152.578125 C 85.679688 152.578125 85.433594 152.578125 85.433594 152.578125 C 84.9375 152.828125 76.515625 152.082031 76.019531 133.507812 Z M 166.925781 272.960938 L 78.003906 247.941406 C 77.753906 247.941406 77.507812 247.941406 77.507812 247.941406 C 77.257812 247.941406 68.839844 247.199219 68.34375 228.621094 C 68.09375 221.933594 69.332031 217.226562 71.808594 214.75 C 73.296875 213.265625 75.03125 212.769531 76.269531 212.769531 C 77.011719 212.769531 77.507812 212.769531 77.507812 212.769531 L 167.917969 242.246094 Z M 283.589844 241.75 C 283.839844 243.234375 283.839844 244.476562 284.085938 245.21875 L 172.128906 273.207031 L 173.117188 242.988281 L 197.144531 238.035156 L 200.613281 238.777344 L 213.988281 234.566406 L 275.171875 221.933594 L 286.8125 219.457031 C 282.601562 226.144531 282.847656 235.558594 283.589844 241.75 Z M 289.785156 200.382812 C 289.535156 200.382812 289.289062 200.382812 289.289062 200.382812 L 280.867188 202.863281 L 200.363281 225.402344 L 199.375 194.933594 L 225.878906 186.265625 L 289.785156 165.460938 C 289.785156 165.460938 293.25 164.714844 295.730469 167.191406 C 298.207031 169.671875 299.195312 174.375 299.195312 181.0625 C 298.453125 199.640625 290.03125 200.382812 289.785156 200.382812 Z M 289.785156 200.382812 "/></g></g></svg>