<svg xmlns="http://www.w3.org/2000/svg" xmlns:xlink="http://www.w3.org/1999/xlink" width="500" zoomAndPan="magnify" viewBox="0 0 375 374.999991" height="500" preserveAspectRatio="xMidYMid meet" version="1.2"><defs><clipPath id="408691adcb"><path d="M 74.191406 74.191406 L 222.605469 74.191406 L 222.605469 222.605469 L 74.191406 222.605469 Z M 74.191406 74.191406 "/></clipPath><clipPath id="d858aa47d1"><path d="M 144.753906 144.753906 L 300.980469 144.753906 L 300.980469 300.980469 L 144.753906 300.980469 Z M 144.753906 144.753906 "/></clipPath></defs><g id="1271d43878"><g clip-rule="nonzero" clip-path="url(#408691adcb)"><path style=" stroke:none;fill-rule:evenodd;fill:#737373;fill-opacity:1;" d="M 222.605469 189.210938 C 222.605469 207.65625 207.65625 222.605469 189.210938 222.605469 L 107.582031 222.605469 C 89.140625 222.605469 74.191406 207.65625 74.191406 189.210938 L 74.191406 107.582031 C 74.191406 89.140625 89.140625 74.191406 107.582031 74.191406 L 189.210938 74.191406 C 207.65625 74.191406 222.605469 89.140625 222.605469 107.582031 Z M 222.605469 189.210938 "/></g><path style=" stroke:none;fill-rule:evenodd;fill:#b4b4b4;fill-opacity:1;" d="M 191.722656 157.671875 C 191.957031 155.699219 191.085938 154.257812 189.503906 153.214844 C 188.628906 152.636719 187.691406 152.140625 186.746094 151.683594 C 182.636719 149.695312 178.496094 147.765625 174.40625 145.746094 C 171.863281 144.488281 169.394531 144.535156 166.894531 145.792969 C 165.40625 146.539062 164.042969 147.46875 162.753906 148.519531 C 158.476562 152.011719 154.195312 155.503906 149.914062 158.992188 C 149.496094 159.332031 149.0625 159.648438 148.632812 159.980469 C 148.21875 159.578125 148.390625 159.15625 148.390625 158.789062 C 148.378906 152.160156 148.402344 145.53125 148.359375 138.902344 C 148.351562 137.945312 148.640625 137.324219 149.382812 136.75 C 150.730469 135.703125 152.054688 134.613281 153.304688 133.457031 C 157.941406 129.167969 163.320312 128.28125 169.273438 129.828125 C 171.171875 130.324219 172.992188 131.039062 174.765625 131.871094 C 184.886719 136.636719 195 141.414062 205.136719 146.152344 C 206.160156 146.628906 206.519531 146.851562 205.398438 147.726562 C 200.929688 151.226562 196.53125 154.808594 192.109375 158.359375 C 191.554688 158.367188 191.585938 158.046875 191.722656 157.671875 Z M 191.722656 157.671875 "/><path style=" stroke:none;fill-rule:evenodd;fill:#b4b4b4;fill-opacity:1;" d="M 162.535156 180.539062 C 161.808594 180.578125 161.078125 180.585938 160.355469 180.671875 C 157.640625 180.996094 155.046875 180.523438 152.554688 179.472656 C 151.074219 178.847656 149.65625 178.070312 148.15625 177.515625 C 147.003906 177.089844 146.761719 176.410156 146.773438 175.253906 C 146.984375 155.960938 147.136719 136.671875 147.359375 117.378906 C 147.375 116.0625 146.964844 115.457031 145.789062 114.921875 C 139.261719 111.941406 132.777344 108.867188 126.273438 105.828125 C 125.835938 105.625 125.390625 105.445312 124.800781 105.191406 C 127.46875 114.148438 125.789062 123.117188 126.0625 132.023438 C 125.40625 131.074219 124.96875 130.078125 124.429688 129.140625 C 123.441406 127.414062 122.183594 125.960938 120.3125 125.09375 C 114.847656 122.5625 109.398438 119.992188 103.941406 117.449219 C 102.339844 116.703125 100.679688 116.144531 98.90625 115.96875 C 96.074219 115.691406 93.902344 116.828125 92.578125 119.363281 C 91.605469 121.21875 91.144531 123.238281 91.070312 125.304688 C 90.773438 133.691406 90.566406 142.085938 90.824219 150.46875 C 91.074219 158.628906 94.164062 165.539062 101.5625 169.667969 C 108.046875 173.289062 114.949219 176.101562 121.679688 179.238281 C 122.9375 179.824219 124.042969 179.472656 124.863281 178.351562 C 125.320312 177.726562 125.734375 177.074219 126.292969 176.25 C 126.871094 177.902344 127.019531 179.398438 127.25 180.867188 C 127.367188 181.636719 127.664062 182.101562 128.402344 182.445312 C 134.773438 185.402344 141.136719 188.386719 147.476562 191.414062 C 148.277344 191.792969 148.742188 191.554688 149.332031 191.09375 C 152.980469 188.257812 156.648438 185.445312 160.308594 182.625 C 161.082031 182.023438 161.855469 181.417969 162.628906 180.816406 Z M 125.992188 153.121094 C 125.996094 153.820312 125.570312 154.210938 125.183594 154.65625 C 122.125 158.175781 119.863281 162.074219 119.390625 166.816406 C 119.308594 167.664062 118.949219 167.523438 118.429688 167.277344 C 117.386719 166.777344 116.367188 166.222656 115.292969 165.820312 C 112.597656 164.804688 111.609375 162.78125 111.628906 160.046875 C 111.65625 156.03125 111.875 140.269531 111.875 136.40625 C 111.878906 135.90625 111.867188 135.398438 111.917969 134.902344 C 112.132812 132.683594 112.980469 132.183594 115.015625 133.113281 C 117.707031 134.347656 120.367188 135.644531 123.058594 136.871094 C 125.011719 137.757812 125.992188 139.296875 126.011719 141.375 C 126.054688 145.289062 125.984375 149.203125 125.992188 153.121094 Z M 125.992188 153.121094 "/><g clip-rule="nonzero" clip-path="url(#d858aa47d1)"><path style=" stroke:none;fill-rule:nonzero;fill:#666666;fill-opacity:1;" d="M 222.777344 300.800781 C 179.695312 300.800781 144.753906 265.859375 144.753906 222.777344 C 144.753906 179.695312 179.695312 144.753906 222.777344 144.753906 C 265.859375 144.753906 300.800781 179.695312 300.800781 222.777344 C 300.800781 265.859375 265.859375 300.800781 222.777344 300.800781 Z M 222.777344 300.800781 "/></g><path style=" stroke:none;fill-rule:nonzero;fill:#b4b4b4;fill-opacity:1;" d="M 240.660156 239.035156 C 236.179688 239.035156 232.53125 235.386719 232.53125 230.90625 C 232.53125 226.429688 236.179688 222.777344 240.660156 222.777344 C 245.136719 222.777344 248.789062 226.429688 248.789062 230.90625 C 248.789062 235.386719 245.136719 239.035156 240.660156 239.035156 M 242.09375 252.378906 C 236.539062 257.917969 225.914062 258.355469 222.792969 258.355469 C 219.671875 258.355469 209.03125 257.917969 203.492188 252.378906 C 202.664062 251.550781 202.664062 250.226562 203.492188 249.398438 C 204.316406 248.570312 205.644531 248.570312 206.472656 249.398438 C 209.964844 252.894531 217.441406 254.140625 222.792969 254.140625 C 228.128906 254.140625 235.621094 252.894531 239.113281 249.398438 C 239.941406 248.570312 241.269531 248.570312 242.09375 249.398438 C 242.90625 250.226562 242.90625 251.550781 242.09375 252.378906 M 196.765625 230.90625 C 196.765625 226.429688 200.417969 222.777344 204.894531 222.777344 C 209.375 222.777344 213.023438 226.429688 213.023438 230.90625 C 213.023438 235.386719 209.375 239.035156 204.894531 239.035156 C 200.417969 239.035156 196.765625 235.386719 196.765625 230.90625 M 274.785156 222.777344 C 274.785156 216.488281 269.699219 211.402344 263.410156 211.402344 C 260.335938 211.402344 257.558594 212.617188 255.515625 214.601562 C 247.746094 208.984375 237.023438 205.363281 225.085938 204.941406 L 230.265625 180.550781 L 247.199219 184.15625 C 247.402344 188.464844 250.925781 191.894531 255.28125 191.894531 C 259.773438 191.894531 263.410156 188.261719 263.410156 183.765625 C 263.410156 179.273438 259.773438 175.636719 255.28125 175.636719 C 252.082031 175.636719 249.351562 177.492188 248.023438 180.175781 L 229.113281 176.152344 C 228.582031 176.042969 228.035156 176.136719 227.582031 176.433594 C 227.132812 176.730469 226.820312 177.179688 226.710938 177.710938 L 221.03125 204.472656 C 221 204.628906 221.03125 204.769531 221.03125 204.925781 C 208.875 205.238281 197.949219 208.875 190.054688 214.570312 C 188.011719 212.601562 185.25 211.402344 182.191406 211.402344 C 175.902344 211.402344 170.816406 216.503906 170.816406 222.777344 C 170.816406 227.394531 173.578125 231.375 177.539062 233.152344 C 177.367188 234.277344 177.273438 235.433594 177.273438 236.601562 C 177.273438 254.109375 197.65625 268.296875 222.792969 268.296875 C 247.929688 268.296875 268.3125 254.109375 268.3125 236.601562 C 268.3125 235.449219 268.21875 234.308594 268.046875 233.183594 C 271.992188 231.40625 274.785156 227.425781 274.785156 222.777344 "/></g></svg>