<svg xmlns="http://www.w3.org/2000/svg" xmlns:xlink="http://www.w3.org/1999/xlink" width="500" zoomAndPan="magnify" viewBox="0 0 375 374.999991" height="500" preserveAspectRatio="xMidYMid meet" version="1.2"><defs><clipPath id="bdff64d6e1"><path d="M 59.78125 63.421875 L 314 63.421875 L 314 311.671875 L 59.78125 311.671875 Z M 59.78125 63.421875 "/></clipPath></defs><g id="bd29a06851"><g clip-rule="nonzero" clip-path="url(#bdff64d6e1)"><path style=" stroke:none;fill-rule:nonzero;fill:#737373;fill-opacity:1;" d="M 159.132812 310.855469 C 138.015625 309.527344 119.105469 304.878906 103.945312 297.285156 C 96.996094 293.804688 96.886719 293.605469 97.785156 285.757812 C 99.96875 266.710938 99.914062 269.050781 98.515625 253.191406 L 97.207031 238.394531 L 93.804688 232.46875 C 89.109375 224.285156 83.515625 216.011719 76.828125 207.351562 C 67.269531 194.980469 64.070312 189.628906 61.460938 181.671875 C 60.109375 177.554688 59.878906 175.917969 59.84375 170.101562 C 59.808594 164.496094 60.027344 162.601562 61.121094 159.097656 C 63.394531 151.820312 66.617188 146.316406 71.367188 141.601562 C 77.777344 135.238281 83.867188 132.074219 93.550781 130.074219 C 110.980469 126.472656 134.492188 135.167969 155.945312 153.144531 C 159.15625 155.839844 161.925781 157.90625 162.09375 157.738281 C 162.261719 157.570312 161.839844 154.820312 161.15625 151.632812 C 157.9375 136.605469 159.527344 124.882812 166.097656 115.207031 C 169.207031 110.625 172.34375 108.015625 177.910156 105.375 L 182.582031 103.15625 L 182.425781 93.734375 L 182.273438 84.316406 L 173.242188 84.035156 L 164.210938 83.75 L 164.210938 75.851562 L 173.242188 75.566406 L 182.273438 75.285156 L 182.835938 63.433594 L 190.738281 63.433594 L 191.300781 75.285156 L 200.332031 75.566406 L 208.796875 75.851562 L 208.796875 83.75 L 200.332031 84.035156 L 191.300781 84.316406 L 191.300781 103.460938 L 195.382812 105.460938 C 200.582031 108.003906 203.949219 110.847656 206.886719 115.167969 C 213.484375 124.882812 215.078125 136.582031 211.855469 151.632812 C 211.171875 154.820312 210.75 157.570312 210.917969 157.738281 C 211.085938 157.90625 213.851562 155.839844 217.066406 153.144531 C 238.515625 135.167969 262.027344 126.472656 279.457031 130.074219 C 289.144531 132.074219 295.230469 135.238281 301.644531 141.601562 C 310.890625 150.78125 315.203125 164.691406 312.679688 177.175781 C 310.820312 186.363281 307.011719 193.339844 296.195312 207.351562 C 289.496094 216.03125 283.898438 224.3125 279.207031 232.46875 L 275.800781 238.394531 L 274.496094 253.191406 C 273.351562 266.128906 273.273438 268.714844 273.855469 273.789062 L 275.210938 285.617188 C 276.125 293.621094 276.035156 293.796875 269.066406 297.285156 C 253.414062 305.125 235.339844 309.46875 212.46875 310.894531 C 201.785156 311.5625 169.984375 311.539062 159.136719 310.855469 Z M 159.132812 310.855469 "/></g></g></svg>