<svg version="1.1" viewBox="238.98501949025487 332.800512 555.7541229385307 104.44800000000001" id="svg404515" xmlns:xlink="http://www.w3.org/1999/xlink" xmlns="http://www.w3.org/2000/svg" style="max-height: 500px" width="555.7541229385307" height="104.44800000000001">
  <metadata id="metadata404521">
    
      
        image/svg+xml
        
      
    
  </metadata>
  <defs id="defs404519"/>
  <linearGradient id="3d_gradient2-logo-7648ca11-c854-4c85-872f-ecfbb096ce03" x1="30%" y1="120%" x2="-10%" y2="30%" spreadMethod="pad">
    <stop offset="0%" stop-color="#ffffff" stop-opacity="1" id="stop404496"/>
    <stop offset="100%" stop-color="#000000" stop-opacity="1" id="stop404498"/>
  </linearGradient>
  <linearGradient id="3d_gradient3-logo-7648ca11-c854-4c85-872f-ecfbb096ce03" x1="30%" y1="120%" x2="-10%" y2="30%" spreadMethod="pad" gradientTransform="rotate(-30)">
    <stop offset="0%" stop-color="#ffffff" stop-opacity="1" id="stop404501"/>
    <stop offset="50%" stop-color="#cccccc" stop-opacity="1" id="stop404503"/>
    <stop offset="100%" stop-color="#000000" stop-opacity="1" id="stop404505"/>
  </linearGradient>
  <g id="logo-group">
    <image transform="translate(0 0)" style="display: none;" height="480" width="480" y="144" x="272" id="container" xlink:href=""/>
    <g transform="translate(0 0)" id="logo-center">
      <image y="0" x="0" style="display: none;" id="icon_container" xlink:href=""/>
      <g transform="translate(0 0)" style="font-style:normal;font-weight:700;font-size:32px;line-height:1;font-family:Numans;font-variant-ligatures:none;text-align:center;text-anchor:middle" id="slogan"/>
      <g transform="translate(0 0)" style="font-style:normal;font-weight:normal;font-size:72px;line-height:1;font-family:'Brandmark Sans 50 Spectrum';font-variant-ligatures:normal;text-align:center;text-anchor:middle">
        <g transform="translate(0 300.30472) translate(245.08306249999998 57.91424) scale(1.22) translate(-292.4765 47.808)" aria-label="C" id="path404524"> <path stroke="#eaedf5" fill="#eaedf5" stroke-miterlimit="2" stroke-linejoin="miter" transform="translate(213.96794 -122.31569)" stroke-width="0" class="c1" d="M119.55214,81.49228c2.23218,2.37622,2.23218,5.97653,0,8.35272-2.37622,2.23221-5.9765,2.23221-8.35266.07202-2.16028-2.3042-5.32849-3.60031-8.64075-3.60031-6.69666,0-12.24109,5.47247-12.24109,12.24106,0,6.69659,5.54443,12.16907,12.24109,12.16907,3.31226,0,6.48047-1.29614,8.64075-3.60034,2.37616-2.16016,5.97644-2.16016,8.35266.14404,2.23218,2.37619,2.3042,5.9765,0,8.35272l-.14404.07199c-4.24829,4.32037-10.29688,6.9126-16.84937,6.9126-13.24915,0-24.05017-10.80093-24.05017-24.05008s10.80103-24.05008,24.05017-24.05008c6.55249,0,12.60107,2.59222,16.99341,6.98459Z"/> </g>
        <g transform="translate(0 300.30472) translate(307.3506425 35.4272) scale(1.22) translate(-343.5155 66.24)" aria-label="h" id="path404526"> <path stroke="#eaedf5" fill="#eaedf5" stroke-miterlimit="2" stroke-linejoin="miter" transform="translate(266.51891 -122.30726)" stroke-width="0" class="c1" d="M116.90089,80.47498c-4.27344-3.70947-9.83643-5.96729-15.854-5.96729h.14355c-6.76855,0-12.38477-5.69531-12.38477-12.46387,0-3.3125-2.59229-5.97656-5.83252-5.97656-3.31201,0-5.97656,2.66406-5.97656,5.97656v54.29932c0,3.3125,2.66455,5.97656,5.97656,5.97656,3.24023,0,5.83252-2.66406,5.83252-5.97656v-17.78516c0-6.76855,5.54443-12.24121,12.24121-12.24121,6.76855,0,12.31299,5.47266,12.31299,12.24121v17.78516c0,3.3125,2.66406,5.97656,5.97607,5.97656,3.24072,0,5.90479-2.66406,5.90479-5.97656v-17.78516c0-7.19873-3.25635-13.66943-8.33984-18.08301Z"/> <path stroke="#adc1f7" fill="#adc1f7" stroke-miterlimit="2" stroke-linejoin="miter" transform="translate(266.51891 -122.30726)" stroke-width="0" class="c2" d="M101.04689,74.50769c-4.46484,0-8.64111,1.22412-12.24121,3.31201v-15.77588c0-3.3125-2.59229-5.97656-5.83252-5.97656-3.31201,0-5.97656,2.66406-5.97656,5.97656v36.50049h.00342c0-7.30029,3.25342-13.83496,8.38281-18.25195,4.26709,3.73682,9.81152,6.02441,15.80762,6.02441,4.46484,0,8.64111-1.22412,12.24121-3.31201,1.2334-.73242,2.39062-1.58496,3.46924-2.52979-4.27344-3.70947-9.83643-5.96729-15.854-5.96729Z"/> <path stroke="#7196fa" fill="#7196fa" stroke-miterlimit="2" stroke-linejoin="miter" transform="translate(266.51891 -122.30726)" stroke-width="0" class="c3" d="M88.80568,62.04383c0-3.3125-2.59229-5.97656-5.83252-5.97656-3.31201,0-5.97656,2.66406-5.97656,5.97656,0,7.22021,3.27588,13.77441,8.38623,18.24854,1.06543-.91748,2.20703-1.75049,3.42285-2.47266,3.6001-2.08789,7.77637-3.31201,12.24121-3.31201h.14355c-6.76855,0-12.38477-5.69531-12.38477-12.46387Z"/> </g>
        <g transform="translate(0 300.30472) translate(374.4411875 57.91424) scale(1.22) translate(-398.50775 47.808)" aria-label="e" id="path404528"> <path stroke="#eaedf5" fill="#eaedf5" stroke-miterlimit="2" stroke-linejoin="miter" transform="translate(322.59393 -122.00466)" stroke-width="0" class="c1" d="M100.07202,74.19666c-13.15771,0-24.1582,10.78516-24.1582,24.01416,0,3.30713,2.66064,5.96777,5.96777,5.96777h36.23682c3.30713,0,5.96777-2.66064,5.96777-5.96777,0-13.229-10.78467-24.01416-24.01416-24.01416ZM100.07202,85.98816c4.56934,0,8.56543,2.5542,10.63916,6.32715h-21.45801c2.12158-3.77295,6.2002-6.32715,10.81885-6.32715Z"/> <path stroke="#eaedf5" fill="#eaedf5" stroke-miterlimit="2" stroke-linejoin="miter" transform="translate(322.59393 -122.00466)" stroke-width="0" class="c1" d="M113.64185,107.98572c-2.01465-1.21191-4.53809-1.08105-6.4624.26953-2.01758,1.41602-4.47314,2.25-7.10742,2.25049v-.00049c-2.63477,0-5.09033-.83398-7.1084-2.25049-1.92432-1.35059-4.44775-1.48145-6.4624-.26953-3.64404,2.19238-3.82129,7.39941-.35107,9.85742,3.95703,2.80273,8.77344,4.45361,13.9209,4.4541v.00049c5.14795,0,9.96436-1.65137,13.92188-4.4541,3.47021-2.45801,3.29297-7.66504-.35107-9.85742Z"/> <path stroke="#7196fa" fill="#7196fa" stroke-miterlimit="2" stroke-linejoin="miter" transform="translate(322.59393 -122.00466)" stroke-width="0" class="c3" d="M112.2229,98.21082c0-2.13965-.55078-4.14795-1.51172-5.89551h-21.45801c-.98291,1.74756-1.54785,3.75586-1.54785,5.89551,0,3.30713-2.66016,5.96777-5.82373,5.96777h36.23682c-3.23535,0-5.89551-2.66064-5.89551-5.96777Z"/> <path stroke="#adc1f7" fill="#adc1f7" stroke-miterlimit="2" stroke-linejoin="miter" transform="translate(322.59393 -122.00466)" stroke-width="0" class="c2" d="M118.11841,92.31531h-7.40723c.96094,1.74756,1.51172,3.75586,1.51172,5.89551,0,3.30713,2.66016,5.96777,5.89551,5.96777,3.30713,0,5.96777-2.66064,5.96777-5.96777,0-3.23535-2.66064-5.89551-5.96777-5.89551Z"/> <path stroke="#adc1f7" fill="#adc1f7" stroke-miterlimit="2" stroke-linejoin="miter" transform="translate(322.59393 -122.00466)" stroke-width="0" class="c2" d="M87.70532,98.21082c0-2.13965.56494-4.14795,1.54785-5.89551h-7.37158c-3.30713,0-5.96777,2.66016-5.96777,5.89551,0,3.30713,2.66064,5.96777,5.96777,5.96777,3.16357,0,5.82373-2.66064,5.82373-5.96777Z"/> <path stroke="#7196fa" fill="#7196fa" stroke-miterlimit="2" stroke-linejoin="miter" transform="translate(322.59393 -122.00466)" stroke-width="0" class="c3" d="M113.64185,107.98572c-2.01465-1.21191-4.53809-1.08105-6.4624.26953-2.01758,1.41602-4.47314,2.25-7.10742,2.25049v-.00049c-2.63477,0-5.09033-.83398-7.1084-2.25049-1.92432-1.35059-4.44775-1.48145-6.4624-.26953-3.64404,2.19238-3.82129,7.39941-.35107,9.85742,3.95703,2.80273,8.77344,4.45361,13.9209,4.4541v.00049c5.14795,0,9.96436-1.65137,13.92188-4.4541,3.47021-2.45801,3.29297-7.66504-.35107-9.85742Z"/> </g>
        <g transform="translate(0 300.30472) translate(433.0784989 58.44128) scale(1.22) translate(-446.57112 47.376)" aria-label="s" id="path404530"> <path stroke="#eaedf5" fill="#eaedf5" stroke-miterlimit="2" stroke-linejoin="miter" transform="translate(370.11407 -122.31572)" stroke-width="0" class="c1" d="M82.43312,110.51083h6.40869c1.08008,0,1.94434-.72009,2.23242-1.65619l6.4082-23.97809c1.72852-6.12048,6.76855-9.93683,12.96143-9.93683l7.12842.07202c3.3125,0,5.90479,2.59222,5.97656,5.90448-.07178,3.31232-2.66406,5.90454-5.97656,5.90454h-6.40869c-1.08008,0-1.94385.64807-2.23193,1.58411l-6.40869,23.97809c-1.72803,6.12054-6.76855,9.93683-12.96094,9.93683l-7.12891-.07196c-3.31201,0-5.9043-2.59222-5.97607-5.90454.07178-3.31226,2.66406-5.83246,5.97607-5.83246Z"/> </g>
        <g transform="translate(0 300.30472) translate(494.3208275 57.91424) scale(1.22) translate(-496.76975 47.808)" aria-label="p" id="path404532"> <path stroke="#eaedf5" fill="#eaedf5" stroke-miterlimit="2" stroke-linejoin="miter" transform="translate(420.42086 -122.3157)" stroke-width="0" class="c1" d="M100.54323,122.8241c-4.49805,0-8.74316-1.26025-12.38525-3.44482v9.85292c0,3.57812-3.0249,6.3999-6.62402,5.92432-3.01465-.39893-5.18506-3.12109-5.18506-6.16211v-30.09462c0-.0166.00195-.03271.00195-.04932,0-.02588-.00195-.05078-.00195-.07666,0-13.46484,11.0166-24.26611,24.19434-24.26611,13.24902,0,24.0498,10.80127,24.0498,24.26611,0,13.24902-10.80078,24.05029-24.0498,24.05029ZM100.54323,86.38904c-1.18457,0-2.33057.17627-3.42041.48975-.23242.11572-.46973.2251-.71924.31201-4.45117,1.55518-7.77148,5.63818-8.19678,10.62256-.01318.1709-.02002.34326-.02637.51611-.00732.16602-.01855.33057-.01953.49854.02979,6.74316,5.63184,12.18701,12.38232,12.18701,6.69629,0,12.16895-5.47266,12.16895-12.24121,0-6.9126-5.47266-12.38477-12.16895-12.38477Z"/> <path stroke="#7196fa" fill="#7196fa" stroke-miterlimit="2" stroke-linejoin="miter" transform="translate(420.42086 -122.3157)" stroke-width="0" class="c3" d="M88.15797,119.37927v9.85292c0,3.57812-3.0249,6.3999-6.62402,5.92432-3.01465-.39893-5.18506-3.12109-5.18506-6.16211v-30.09462c0-.0166.00195-.03271.00195-.04932.02832,8.69482,4.79932,16.32568,11.80713,20.52881Z"/> <path stroke="#adc1f7" fill="#adc1f7" stroke-miterlimit="2" stroke-linejoin="miter" transform="translate(420.42086 -122.3157)" stroke-width="0" class="c2" d="M92.86744,75.84558c3.70312-1.229,7.53174,1.49561,7.53174,5.39746v.5127c0,2.22607-1.31836,4.15137-3.27637,5.12305-4.84619,1.39404-8.51318,5.66846-8.91602,10.93457-.01465.17041-.01855.34375-.02637.51611-.00537.14893-.02246.29395-.02246.44434,0,.01855.00293.03564.00293.0542-.00049.02393-.00293.04785-.00293.07178v20.47949c-7.00781-4.20312-11.77881-11.83398-11.80713-20.52881.02148-10.77197,6.95312-19.83105,16.5166-23.00488Z"/> </g>
        <g transform="translate(0 300.30472) translate(560.0718125000001 57.91424) scale(1.22) translate(-550.664 47.808)" aria-label="e" id="path404534"> <path stroke="#eaedf5" fill="#eaedf5" stroke-miterlimit="2" stroke-linejoin="miter" transform="translate(474.75018 -122.00466)" stroke-width="0" class="c1" d="M100.07202,74.19666c-13.15771,0-24.1582,10.78516-24.1582,24.01416,0,3.30713,2.66064,5.96777,5.96777,5.96777h36.23682c3.30713,0,5.96777-2.66064,5.96777-5.96777,0-13.229-10.78467-24.01416-24.01416-24.01416ZM100.07202,85.98816c4.56934,0,8.56543,2.5542,10.63916,6.32715h-21.45801c2.12158-3.77295,6.2002-6.32715,10.81885-6.32715Z"/> <path stroke="#eaedf5" fill="#eaedf5" stroke-miterlimit="2" stroke-linejoin="miter" transform="translate(474.75018 -122.00466)" stroke-width="0" class="c1" d="M113.64185,107.98572c-2.01465-1.21191-4.53809-1.08105-6.4624.26953-2.01758,1.41602-4.47314,2.25-7.10742,2.25049v-.00049c-2.63477,0-5.09033-.83398-7.1084-2.25049-1.92432-1.35059-4.44775-1.48145-6.4624-.26953-3.64404,2.19238-3.82129,7.39941-.35107,9.85742,3.95703,2.80273,8.77344,4.45361,13.9209,4.4541v.00049c5.14795,0,9.96436-1.65137,13.92188-4.4541,3.47021-2.45801,3.29297-7.66504-.35107-9.85742Z"/> <path stroke="#7196fa" fill="#7196fa" stroke-miterlimit="2" stroke-linejoin="miter" transform="translate(474.75018 -122.00466)" stroke-width="0" class="c3" d="M112.2229,98.21082c0-2.13965-.55078-4.14795-1.51172-5.89551h-21.45801c-.98291,1.74756-1.54785,3.75586-1.54785,5.89551,0,3.30713-2.66016,5.96777-5.82373,5.96777h36.23682c-3.23535,0-5.89551-2.66064-5.89551-5.96777Z"/> <path stroke="#adc1f7" fill="#adc1f7" stroke-miterlimit="2" stroke-linejoin="miter" transform="translate(474.75018 -122.00466)" stroke-width="0" class="c2" d="M118.11841,92.31531h-7.40723c.96094,1.74756,1.51172,3.75586,1.51172,5.89551,0,3.30713,2.66016,5.96777,5.89551,5.96777,3.30713,0,5.96777-2.66064,5.96777-5.96777,0-3.23535-2.66064-5.89551-5.96777-5.89551Z"/> <path stroke="#adc1f7" fill="#adc1f7" stroke-miterlimit="2" stroke-linejoin="miter" transform="translate(474.75018 -122.00466)" stroke-width="0" class="c2" d="M87.70532,98.21082c0-2.13965.56494-4.14795,1.54785-5.89551h-7.37158c-3.30713,0-5.96777,2.66016-5.96777,5.89551,0,3.30713,2.66064,5.96777,5.96777,5.96777,3.16357,0,5.82373-2.66064,5.82373-5.96777Z"/> <path stroke="#7196fa" fill="#7196fa" stroke-miterlimit="2" stroke-linejoin="miter" transform="translate(474.75018 -122.00466)" stroke-width="0" class="c3" d="M113.64185,107.98572c-2.01465-1.21191-4.53809-1.08105-6.4624.26953-2.01758,1.41602-4.47314,2.25-7.10742,2.25049v-.00049c-2.63477,0-5.09033-.83398-7.1084-2.25049-1.92432-1.35059-4.44775-1.48145-6.4624-.26953-3.64404,2.19238-3.82129,7.39941-.35107,9.85742,3.95703,2.80273,8.77344,4.45361,13.9209,4.4541v.00049c5.14795,0,9.96436-1.65137,13.92188-4.4541,3.47021-2.45801,3.29297-7.66504-.35107-9.85742Z"/> </g>
        <g transform="translate(0 300.30472) translate(625.1900689 35.4272) scale(1.22) translate(-604.03962 66.24)" aria-label="d" id="path404536"> <path stroke="#eaedf5" fill="#eaedf5" stroke-miterlimit="2" stroke-linejoin="miter" transform="translate(528.1617 -122.3139)" stroke-width="0" class="c1" d="M99.92773,74.63367c4.49805,0,8.74316,1.26025,12.38525,3.44482v-16.02783c0-3.57812,3.0249-6.3999,6.62402-5.92432,3.01465.39893,5.18506,3.12109,5.18506,6.16211v36.26953c0,.0166-.00195.03271-.00195.04932,0,.02588.00195.05078.00195.07666,0,13.46484-11.0166,24.26611-24.19434,24.26611-13.24902,0-24.0498-10.80127-24.0498-24.26611,0-13.24902,10.80078-24.05029,24.0498-24.05029ZM99.92773,111.06873c1.18457,0,2.33057-.17627,3.42041-.48975.23242-.11572.46973-.2251.71924-.31201,4.45117-1.55518,7.77148-5.63818,8.19678-10.62256.01318-.1709.02002-.34326.02637-.51611.00732-.16602.01855-.33057.01953-.49854-.02979-6.74316-5.63184-12.18701-12.38232-12.18701-6.69629,0-12.16895,5.47266-12.16895,12.24121,0,6.9126,5.47266,12.38477,12.16895,12.38477Z"/> <path stroke="#7196fa" fill="#7196fa" stroke-miterlimit="2" stroke-linejoin="miter" transform="translate(528.1617 -122.3139)" stroke-width="0" class="c3" d="M112.31299,78.07849v-16.02783c0-3.57812,3.0249-6.3999,6.62402-5.92432,3.01465.39893,5.18506,3.12109,5.18506,6.16211v36.26953c0,.0166-.00195.03271-.00195.04932-.02832-8.69482-4.79932-16.32568-11.80713-20.52881Z"/> <path stroke="#adc1f7" fill="#adc1f7" stroke-miterlimit="2" stroke-linejoin="miter" transform="translate(528.1617 -122.3139)" stroke-width="0" class="c2" d="M107.60352,121.61219c-3.70312,1.229-7.53174-1.49561-7.53174-5.39746v-.5127c0-2.22607,1.31836-4.15137,3.27637-5.12305,4.84619-1.39404,8.51318-5.66846,8.91602-10.93457.01465-.17041.01855-.34375.02637-.51611.00537-.14893.02246-.29395.02246-.44434,0-.01855-.00293-.03564-.00293-.0542.00049-.02393.00293-.04785.00293-.07178v-20.47949c7.00781,4.20312,11.77881,11.83398,11.80713,20.52881-.02148,10.77197-6.95312,19.83105-16.5166,23.00488Z"/> </g>
        <g transform="translate(0 300.30472) translate(695.5924625 58.44128) scale(1.22) translate(-661.7465 47.376)" aria-label="i" id="path404538"> <path stroke="#eaedf5" fill="#eaedf5" stroke-miterlimit="2" stroke-linejoin="miter" transform="translate(567.6857 -122.31573)" stroke-width="0" class="c1" d="M94.0608,116.34329v-35.42706c0-3.31226,2.66431-5.9765,5.97656-5.9765,3.24023,0,5.83252,2.66425,5.83252,5.9765v35.42706c0,3.31232-2.59229,5.9765-5.83252,5.9765-3.31226,0-5.97656-2.66418-5.97656-5.9765Z"/> </g>
        <g transform="translate(0 300.30472) translate(720.0641375 57.91424) scale(1.22) translate(-681.80525 47.808)" aria-label="a" id="path404540"> <path stroke="#eaedf5" fill="#eaedf5" stroke-miterlimit="2" stroke-linejoin="miter" transform="translate(610.90486 -122.27956)" stroke-width="0" class="c1" d="M128.55714,113.95838l-11.70947-25.56006c-.02832-.06104-.06104-.11963-.09033-.18018-.06152-.12793-.12744-.25391-.19092-.38037-.12109-.23926-.24219-.47803-.37061-.71338-.03857-.07031-.08008-.13965-.11914-.20947-2.25244-4.02539-5.62354-7.33838-9.67041-9.53125-.00244-.00098-.00439-.00244-.00635-.00342-.31689-.17139-.63867-.33496-.96338-.49268-.03809-.01855-.07617-.0376-.11426-.05615-.29541-.1416-.59473-.27539-.896-.40527-.07178-.03076-.14355-.0625-.21582-.09277-.2749-.11475-.55322-.22363-.83301-.32861-.10303-.03857-.20557-.07764-.30908-.11475-.11523-.0415-.22803-.08789-.34424-.12793-.05615-.01904-.11182-.02832-.16797-.0459-2.39648-.80273-4.94922-1.24463-7.59277-1.24463-13.26318,0-24.06299,10.80029-24.06299,24.06348,0,13.45264,10.7998,24.25293,24.06299,24.25293,8.15332,0,15.46826-4.14307,19.85986-10.48975l3.00635,6.57129c.96045,2.09863,3.05615,3.44482,5.36426,3.44482,4.29785,0,7.15332-4.44873,5.36328-8.35596ZM94.96339,110.94568c-6.72607,0-12.22119-5.49463-12.22119-12.41064,0-6.72656,5.49512-12.22119,12.22119-12.22119,1.60254,0,3.13672.31982,4.55029.88623.10449.0415.20947.08154.31299.12598.31445.13623.62305.28271.92383.44336.0249.01318.05029.02588.0752.03955,3.82275,2.0791,6.45361,6.1123,6.45361,10.72607,0,6.91602-5.58936,12.41064-12.31592,12.41064Z"/> <path stroke="#7196fa" fill="#7196fa" stroke-miterlimit="2" stroke-linejoin="miter" transform="translate(610.90486 -122.27956)" stroke-width="0" class="c3" d="M128.55714,113.95838l-11.70947-25.56006c-.02832-.06104-.06104-.11963-.09033-.18018,1.51123,3.12891,2.36426,6.62695,2.36426,10.31689,0,5.12305-1.59717,9.85889-4.29834,13.76318l3.00635,6.57129c.96045,2.09863,3.05615,3.44482,5.36426,3.44482,4.29785,0,7.15332-4.44873,5.36328-8.35596Z"/> <path stroke="#adc1f7" fill="#adc1f7" stroke-miterlimit="2" stroke-linejoin="miter" transform="translate(610.90486 -122.27956)" stroke-width="0" class="c2" d="M116.75734,88.21814c-.06152-.12793-.12744-.25342-.19092-.38037-.12109-.23926-.24219-.47852-.37061-.71338-.03857-.07031-.08008-.13916-.11914-.20947-2.25293-4.01611-5.62256-7.33496-9.67041-9.53125-.00244-.00098-.00439-.00244-.00635-.00342-.31689-.17188-.63867-.33496-.96338-.49268-.03809-.01855-.07617-.0376-.11426-.05615-.29541-.1416-.59473-.27539-.896-.40527-.07178-.03076-.14355-.0625-.21582-.09277-.2749-.11475-.55322-.22363-.83301-.32861-.10303-.03857-.20557-.07764-.30908-.11475-.16943-.06104-.34131-.1167-.51221-.17383-3.75635-1.16309-7.59277,1.70752-7.59277,5.67432,0,2.54395,1.63721,4.77246,4.0415,5.60449.17334.06006.33838.1377.50879.20508.10449.04199.20996.08154.31299.12598.31494.13477.62158.28369.92383.44336.0249.01318.05029.02588.0752.03955,2.2998,1.23438,4.19092,3.15674,5.31689,5.51562l8.68066,18.97363c2.70117-3.9043,4.29834-8.64014,4.29834-13.76318,0-3.68994-.85303-7.18799-2.36426-10.31689Z"/> </g>
      </g>
      <image y="0" x="0" style="display: none;" id="icon" xlink:href=""/>
    </g>
  </g>
</svg>